# xmcd
#
# Track frame offsets:
#	150
#	22310
#	41773
#	59673
#	80605
#	102948
#	118563
#	139258
#	162068
#	179538
#
# Disc length: 2687 seconds
#
# Revision: 4294967295
# Processed by: cddbd v1.5.2PL0 Copyright (c) Steve Scherf et al.
# Submitted via: EZCDAudioConverter 8.0.2.1
#
DISCID=8e0a7d0a
DTITLE=Various Artist - Missing You
DYEAR=1990
DGENRE=
TTITLE0=Lưu Bích - Đôi mắt giai nhân
TTITLE1=Ngọc Lan - Lời tình cho anh
TTITLE2=Lynda Trang Đài - Tình đôi ta
TTITLE3=Thúy Vi - Nỗi buồn
TTITLE4=Anh Tú - Tình là
TTITLE5=Lynda Trang Đài - Vũ điệu tình nồng
TTITLE6=Minh Xuân - Jimmy
TTITLE7=Don Hồ - Trong mắt em
TTITLE8=Lynda Trang Đài - Lạnh lùng
TTITLE9=Huỳnh Thi - Vắng bóng em
EXTD=
EXTT0=
EXTT1=
EXTT2=
EXTT3=
EXTT4=
EXTT5=
EXTT6=
EXTT7=
EXTT8=
EXTT9=
PLAYORDER=
